# File created by Blade
# Date/Time:  Wed Apr 08 14:47:20 2015
# Frame Rate: 120.000 fps
#------------------------------------------------------
:FULLY-SPECIFIED
:DEGREES
1126
root 4.230718 32.453426 3.692223 -11.615730 82.043512 -32.776300
Spine -6.842174 -10.917207 1.816876
Head -20.877724 -49.536715 28.100366
LeftShoulder -13.726104 42.419068 12.601869
LeftArm 64.041146 19.984044 -65.313379
LeftForeArm 2.013561 0.000000 121.220212
LeftHand 11.438211 -0.000000 4.453513
LeftHandThumb1 -26.253704 0.000000 33.147579
RightShoulder -1.560019 -1.890280 -21.884668
RightArm 25.816885 -37.472238 77.770668
RightForeArm 3.185657 -0.000000 115.348245
RightHand 17.155629 -0.000000 -21.430230
RightHandThumb1 -24.326973 -0.000000 -32.862282
LeftUpLeg -24.052167 -6.348474 20.370708
LeftLeg 17.304959 -0.000000 -0.000000
LeftFoot -11.222281 7.408384 -22.706079
LeftToeBase -11.286144 -0.000000 0.000000
RightUpLeg -25.820368 2.921932 -1.564767
RightLeg 19.592497 -0.000000 -0.000000
RightFoot -12.104293 -17.067840 9.673204
RightToeBase -7.239783 -0.000000 0.000000
1127
root 4.232314 32.446232 3.611440 -10.317277 81.773617 -31.317270
Spine -6.798029 -10.806646 1.712284
Head -20.565816 -49.462508 27.868698
LeftShoulder -13.839093 42.489833 12.482095
LeftArm 64.001394 19.992382 -65.332086
LeftForeArm 2.088206 -0.000000 121.216954
LeftHand 11.414251 -0.000000 4.367233
LeftHandThumb1 -26.253704 0.000000 33.147579
RightShoulder -1.623864 -1.995666 -21.865266
RightArm 25.777316 -37.496633 77.724748
RightForeArm 3.074073 -0.000000 115.307509
RightHand 17.143404 -0.000000 -21.498701
RightHandThumb1 -24.326973 -0.000000 -32.862282
LeftUpLeg -24.012398 -6.738755 20.469597
LeftLeg 17.681150 -0.000000 -0.000000
LeftFoot -11.312860 6.836240 -22.734608
LeftToeBase -11.436418 -0.000000 0.000000
RightUpLeg -25.720483 3.007869 -1.810562
RightLeg 19.584539 -0.000000 -0.000000
RightFoot -12.104642 -16.825409 9.780798
RightToeBase -7.166827 -0.000000 0.000000
1128
root 4.231240 32.438587 3.523023 -8.929424 81.501914 -29.799288
Spine -6.785434 -10.694188 1.593746
Head -20.269906 -49.397207 27.651539
LeftShoulder -13.953203 42.592768 12.363116
LeftArm 63.990766 19.979389 -65.358097
LeftForeArm 2.110374 -0.000000 121.204220
LeftHand 11.392911 -0.000000 4.254475
LeftHandThumb1 -26.253704 0.000000 33.147579
RightShoulder -1.684093 -2.105962 -21.870206
RightArm 25.715812 -37.501037 77.704834
RightForeArm 3.032016 -0.000000 115.278819
RightHand 17.151809 -0.000000 -21.426608
RightHandThumb1 -24.326973 -0.000000 -32.862282
LeftUpLeg -24.027066 -7.099616 20.534969
LeftLeg 18.091262 -0.000000 -0.000000
LeftFoot -11.369401 6.234961 -22.676461
LeftToeBase -11.558828 -0.000000 0.000000
RightUpLeg -25.665164 3.094737 -2.092898
RightLeg 19.584646 -0.000000 -0.000000
RightFoot -12.103202 -16.599116 9.854720
RightToeBase -7.055329 -0.000000 0.000000
1129
root 4.235686 32.429362 3.433268 -7.754687 81.208091 -28.455000
Spine -6.743841 -10.574621 1.482206
Head -19.945549 -49.313442 27.394502
LeftShoulder -14.013429 42.687514 12.287233
LeftArm 63.903043 19.961375 -65.408583
LeftForeArm 2.195769 -0.000000 121.237359
LeftHand 11.349241 -0.000000 4.170358
LeftHandThumb1 -26.253704 0.000000 33.147579
RightShoulder -1.740983 -2.237515 -21.877582
RightArm 25.676969 -37.518797 77.661838
RightForeArm 3.082426 0.000000 115.259971
RightHand 17.175092 -0.000000 -21.418895
RightHandThumb1 -24.326973 -0.000000 -32.862282
LeftUpLeg -23.973453 -7.495979 20.624321
LeftLeg 18.457258 -0.000000 -0.000000
LeftFoot -11.453774 5.603563 -22.649294
LeftToeBase -11.782289 -0.000000 0.000000
RightUpLeg -25.549039 3.217291 -2.365142
RightLeg 19.546951 -0.000000 -0.000000
RightFoot -12.066246 -16.409060 9.874640
RightToeBase -7.049599 -0.000000 0.000000
1130
root 4.238483 32.419743 3.338775 -6.818508 80.936171 -27.369105
Spine -6.719067 -10.489838 1.400443
Head -19.614354 -49.213528 27.142384
LeftShoulder -14.111313 42.756337 12.182685
LeftArm 63.826449 19.945330 -65.468165
LeftForeArm 2.198660 -0.000000 121.233195
LeftHand 11.398550 0.000000 4.118846
LeftHandThumb1 -26.253704 0.000000 33.147579
RightShoulder -1.814408 -2.372296 -21.880474
RightArm 25.655531 -37.523451 77.596048
RightForeArm 3.112751 -0.000000 115.249643
RightHand 17.190725 -0.000000 -21.417819
RightHandThumb1 -24.326973 -0.000000 -32.862282
LeftUpLeg -23.958065 -7.927961 20.740580
LeftLeg 18.820356 -0.000000 -0.000000
LeftFoot -11.475635 5.009238 -22.460868
LeftToeBase -12.619972 -0.000000 0.000000
RightUpLeg -25.442481 3.287889 -2.602083
RightLeg 19.480082 -0.000000 -0.000000
RightFoot -12.040266 -16.281038 9.896884
RightToeBase -6.895550 -0.000000 0.000000
1131
root 4.241255 32.409273 3.238787 -5.718582 80.632626 -26.133640
Spine -6.719562 -10.371807 1.282056
Head -19.283418 -49.145413 26.902976
LeftShoulder -14.184220 42.865376 12.092190
LeftArm 63.780704 19.945130 -65.510424
LeftForeArm 2.168111 -0.000000 121.263138
LeftHand 11.328073 0.000000 4.219934
LeftHandThumb1 -26.253704 0.000000 33.147579
RightShoulder -1.873562 -2.499103 -21.897014
RightArm 25.581247 -37.520720 77.574784
RightForeArm 3.188668 -0.000000 115.262447
RightHand 17.133263 -0.000000 -21.493576
RightHandThumb1 -24.326973 -0.000000 -32.862282
LeftUpLeg -23.954245 -8.357606 20.835132
LeftLeg 19.202953 -0.000000 -0.000000
LeftFoot -11.620543 4.333690 -22.599764
LeftToeBase -12.689225 -0.000000 0.000000
RightUpLeg -25.352547 3.484149 -2.917840
RightLeg 19.444105 -0.000000 -0.000000
RightFoot -11.997969 -16.174590 9.986039
RightToeBase -7.009930 -0.000000 0.000000
